External Loads File
version=1
nRows=39
nColumns=13
Range=5.000000e-03-10 seconds
endheader
time 	forceRightX 	forceRightY 	forceRightZ 	pointRightX 	pointRightY 	pointRightZ 	forceLeftX 	forceLeftY 	forceLeftZ 	pointLeftX 	pointLeftY 	pointLeftZ 		
2.505000 83.931192 -54.230755 -0.000000 0.138997 0.185110 -0.160404 -39.284513 125.383546 -0.000000 0.335147 0.471114 -0.401477
2.510000 72.267914 -84.171758 -0.000000 0.133451 0.190131 -0.160527 -31.773346 145.198370 -0.000000 0.339462 0.466282 -0.401820
2.515000 61.430372 -107.178436 -0.000000 0.128227 0.195368 -0.160626 -24.224346 167.767923 -0.000000 0.343346 0.461011 -0.402111
2.520000 51.486574 -123.912872 -0.000000 0.123363 0.200744 -0.160571 -16.758564 193.114234 -0.000000 0.347067 0.455282 -0.402682
2.525000 42.720327 -135.164736 -0.000000 0.118702 0.206310 -0.160542 -9.704494 221.027371 -0.000000 0.350226 0.449144 -0.403205
2.530000 35.222785 -141.916516 -0.000000 0.114177 0.212154 -0.160321 -3.050173 251.115900 -0.000000 0.353352 0.442739 -0.403504
2.535000 29.185005 -145.096204 -0.000000 0.109912 0.218336 -0.160175 3.037544 282.821800 -0.000000 0.356304 0.435869 -0.403827
2.540000 24.819518 -145.545810 -0.000000 0.105927 0.224690 -0.159958 8.207287 315.501904 -0.000000 0.359030 0.428650 -0.404331
2.545000 22.024005 -144.045973 -0.000000 0.102081 0.231337 -0.159633 12.514733 348.469678 -0.000000 0.361567 0.421079 -0.404673
2.550000 20.817121 -141.226797 -0.000000 0.098514 0.238156 -0.159410 15.438425 381.082676 -0.000000 0.364040 0.413527 -0.404560
2.555000 20.745250 -137.645169 -0.000000 0.095257 0.245238 -0.159063 17.335366 412.716884 -0.000000 0.366416 0.405626 -0.404445
2.560000 21.372090 -133.697319 -0.000000 0.092345 0.252573 -0.158843 18.520968 442.791294 -0.000000 0.368805 0.397260 -0.404620
2.565000 22.489065 -129.609492 -0.000000 0.089804 0.260037 -0.158648 18.700817 470.848730 -0.000000 0.370987 0.388615 -0.404858
2.570000 23.834994 -125.522810 -0.000000 0.087661 0.267716 -0.158479 17.991785 496.615721 -0.000000 0.373251 0.380020 -0.404864
2.575000 25.319123 -121.495397 -0.000000 0.085907 0.275482 -0.158370 16.162637 520.104043 -0.000000 0.375221 0.371535 -0.404901
2.580000 26.703313 -117.601952 -0.000000 0.084620 0.283303 -0.158285 13.744042 541.577848 -0.000000 0.376995 0.362928 -0.404599
2.585000 27.942314 -113.907088 -0.000000 0.083691 0.291216 -0.158152 10.525350 561.546869 -0.000000 0.378460 0.354458 -0.404904
2.590000 28.739362 -110.588859 -0.000000 0.083194 0.299342 -0.158132 7.601746 580.618031 -0.000000 0.379785 0.345777 -0.404827
2.595000 29.142505 -107.784369 -0.000000 0.083165 0.307361 -0.158065 4.485826 599.466520 -0.000000 0.380795 0.336986 -0.405025
2.600000 28.904285 -105.712181 -0.000000 0.083481 0.315798 -0.158106 2.341733 618.732697 -0.000000 0.381475 0.328202 -0.404812
2.605000 28.114144 -104.459924 -0.000000 0.084226 0.324079 -0.158092 0.488204 639.020782 -0.000000 0.381971 0.319341 -0.404879
2.610000 26.595371 -104.106478 -0.000000 0.085450 0.332558 -0.158127 -0.365160 660.848292 -0.000000 0.382250 0.310509 -0.405156
2.615000 24.326668 -104.590546 -0.000000 0.087012 0.340982 -0.158246 -0.604069 684.650447 -0.000000 0.381828 0.301724 -0.404846
2.620000 21.167684 -105.798066 -0.000000 0.089081 0.349428 -0.158348 0.162057 710.790144 -0.000000 0.381239 0.292876 -0.404543
2.625000 17.169227 -107.526093 -0.000000 0.091474 0.357694 -0.158505 1.291902 739.569831 -0.000000 0.380159 0.284032 -0.404498
2.630000 12.280326 -109.578544 -0.000000 0.094335 0.365977 -0.158641 3.100399 771.226757 -0.000000 0.378702 0.275258 -0.404428
2.635000 6.523764 -111.745069 -0.000000 0.097637 0.374169 -0.158715 5.691514 805.918245 -0.000000 0.376757 0.266490 -0.404338
2.640000 0.032574 -113.816542 -0.000000 0.101375 0.382236 -0.158781 8.627673 843.729673 -0.000000 0.374416 0.257909 -0.404199
2.645000 -7.089825 -115.597894 -0.000000 0.105518 0.390105 -0.158819 11.890704 884.674802 -0.000000 0.371646 0.249499 -0.404058
2.650000 -14.797825 -116.898374 -0.000000 0.109990 0.397893 -0.158926 16.216151 928.655492 -0.000000 0.368428 0.241143 -0.403927
2.655000 -22.892002 -117.566437 -0.000000 0.114865 0.405566 -0.159047 21.508363 975.433195 -0.000000 0.364789 0.232987 -0.403832
2.660000 -31.126739 -117.517995 -0.000000 0.120105 0.412853 -0.159234 27.433358 1024.593333 -0.000000 0.360739 0.225019 -0.403758
2.665000 -39.404939 -116.688474 -0.000000 0.125675 0.419946 -0.159268 34.980924 1075.466635 -0.000000 0.356254 0.217243 -0.403662
2.670000 -47.373277 -115.146906 -0.000000 0.130849 0.427010 -0.160280 42.871261 1127.175946 -0.000000 0.351392 0.209813 -0.403569
2.675000 -55.130690 -112.842245 -0.000000 0.137067 0.433620 -0.160426 54.125315 1178.376171 -0.000000 0.346158 0.202643 -0.403396
2.680000 -62.378714 -109.905151 -0.000000 0.143628 0.439903 -0.160541 67.895770 1227.578577 -0.000000 0.340537 0.195838 -0.403280
2.685000 -68.985125 -106.441290 -0.000000 0.150415 0.445906 -0.160664 84.551206 1273.048943 -0.000000 0.334602 0.189245 -0.403184
2.690000 -74.857304 -102.577589 -0.000000 0.157345 0.451928 -0.160935 104.265850 1312.844283 -0.000000 0.328327 0.183058 -0.403124
2.695000 -79.858095 -98.540859 -0.000000 0.164586 0.457045 -0.161042 125.447307 1344.956948 -0.000000 0.321759 0.177232 -0.403084
